<svg width="21" height="20" viewBox="0 0 21 20" fill="none" xmlns="http://www.w3.org/2000/svg">
<path d="M10.9065 1.89753C13.5625 1.89753 13.8775 1.90747 14.9269 1.95555C17.6227 2.07824 18.8819 3.35732 19.0046 6.0332C19.0526 7.08183 19.0618 7.39683 19.0618 10.0528C19.0618 12.7096 19.0518 13.0238 19.0046 14.0724C18.881 16.7458 17.6252 18.0274 14.9269 18.1501C13.8775 18.1981 13.5641 18.2081 10.9065 18.2081C8.25049 18.2081 7.93549 18.1981 6.88686 18.1501C4.18446 18.0266 2.9319 16.7417 2.80922 14.0716C2.76114 13.023 2.75119 12.7088 2.75119 10.052C2.75119 7.396 2.76197 7.08183 2.80922 6.03237C2.93273 3.35732 4.1886 2.07741 6.88686 1.95473C7.93632 1.90747 8.25049 1.89753 10.9065 1.89753ZM10.9065 0.104492C8.2049 0.104492 7.86669 0.116098 6.80562 0.164177C3.19302 0.329969 1.18529 2.33439 1.0195 5.9503C0.97059 7.0122 0.958984 7.35041 0.958984 10.052C0.958984 12.7536 0.97059 13.0926 1.01867 14.1537C1.18446 17.7663 3.18888 19.774 6.80479 19.9398C7.86669 19.9879 8.2049 19.9995 10.9065 19.9995C13.608 19.9995 13.9471 19.9879 15.0082 19.9398C18.6174 19.774 20.6301 17.7696 20.7935 14.1537C20.8424 13.0926 20.854 12.7536 20.854 10.052C20.854 7.35041 20.8424 7.0122 20.7943 5.95113C20.6318 2.34185 18.6249 0.330798 15.009 0.165006C13.9471 0.116098 13.608 0.104492 10.9065 0.104492V0.104492ZM10.9065 4.94395C8.08553 4.94395 5.79844 7.23104 5.79844 10.052C5.79844 12.8729 8.08553 15.1608 10.9065 15.1608C13.7274 15.1608 16.0145 12.8738 16.0145 10.052C16.0145 7.23104 13.7274 4.94395 10.9065 4.94395ZM10.9065 13.3678C9.07531 13.3678 7.59064 11.884 7.59064 10.052C7.59064 8.22081 9.07531 6.73615 10.9065 6.73615C12.7376 6.73615 14.2223 8.22081 14.2223 10.052C14.2223 11.884 12.7376 13.3678 10.9065 13.3678ZM16.2168 3.54881C15.5569 3.54881 15.0222 4.08349 15.0222 4.74251C15.0222 5.40153 15.5569 5.93621 16.2168 5.93621C16.8758 5.93621 17.4096 5.40153 17.4096 4.74251C17.4096 4.08349 16.8758 3.54881 16.2168 3.54881Z" fill="#003D31"/>
</svg>
