<svg fill="none" height="33" viewBox="0 0 300 33" width="300" xmlns="http://www.w3.org/2000/svg"><path d="m163.985.264221c-12.653 0-12.653 7.097699-25.304 7.097699v18.21268c10.093 0 12.134-4.517 18.973-6.3425v6.3425c12.654 0 12.654-7.0977 25.305-7.0977v-18.212679c-10.093 0-12.134 4.516989-18.974 6.342519z" fill="#f0ff3d"/><g fill="#fff"><path d="m18.454.278285-6.9075 18.922515-6.9046-18.922515h-4.6419l9.22986 25.293415h4.64754l9.2128-25.293415z"/><path d="m29.87 22.1733c-2.8192 0-4.6987-1.8766-5.0224-4.8037h13.4402c.037-.3634.0739-.9057.0739-1.5189 0-4.3353-2.7454-8.78132-8.8523-8.78132-5.9621 0-8.9261 4.51692-8.9261 9.32352s3.3246 9.4684 9.2867 9.4684c4.48 0 7.8756-2.4956 8.5626-6.3624h-4.3352c-.4713 1.7346-1.9505 2.6744-4.2274 2.6744zm-.3606-11.7794c2.6375 0 4.2274 1.7347 4.4063 4.0486h-8.9602c.4685-2.7454 2.0584-4.0486 4.5539-4.0486z"/><path d="m50.1467 7.06938c-2.6006 0-4.6589 1.13563-5.6782 3.12302v-2.81924h-4.4374v18.21274h4.4431v-9.9368c0-2.6744 1.7347-4.6249 4.2274-4.6249 2.2713 0 3.7958 1.7319 3.7958 4.2274v10.3343h4.4432v-11.2882c0-4.2643-2.6744-7.22832-6.7939-7.22832z"/><path d="m72.4959 9.56493c-1.0476-1.482-2.9611-2.49555-5.346-2.49555-5.3942 0-8.5995 3.83272-8.5995 9.39452s3.2138 9.3974 8.6705 9.3974c2.206 0 4.2274-.9767 5.275-2.5552v2.2713h4.4091v-25.299115h-4.4091zm-4.6248 12.46357c-2.9612 0-4.9145-2.2031-4.9145-5.5646s1.9533-5.5618 4.9145-5.5618c2.9611 0 4.9087 2.2032 4.9087 5.5618s-1.9561 5.5646-4.9201 5.5646z"/><path d="m83.9772 10.5756v-3.21665h-4.446v18.21275h4.446v-8.5996c0-3.4694 1.1186-5.8911 3.9378-5.8911h2.8533v-3.72205h-2.1294c-2.3507 0-3.7589.90284-4.6617 3.21665z"/><path d="m100.546 22.1733c-2.8192 0-4.6986-1.8766-5.0251-4.8037h13.4431c.037-.3634.071-.9057.071-1.5189 0-4.3353-2.745-8.78132-8.852-8.78132-5.9624 0-8.9236 4.51692-8.9236 9.32352s3.3246 9.4684 9.2866 9.4684c4.48 0 7.876-2.4956 8.563-6.3624h-4.336c-.479 1.7346-1.953 2.6744-4.227 2.6744zm-.363-11.7794c2.637 0 4.227 1.7347 4.409 4.0486h-8.9632c.4713-2.7454 2.0611-4.0486 4.5542-4.0486z"/><path d="m124.55 9.56493c-1.047-1.482-2.964-2.49555-5.348-2.49555-5.395 0-8.6 3.83272-8.6 9.39452s3.217 9.3974 8.673 9.3974c2.204 0 4.228-.9767 5.275-2.5552v2.2713h4.41v-25.299115h-4.41zm-4.624 12.46357c-2.964 0-4.915-2.2031-4.915-5.5646s1.951-5.5618 4.915-5.5618 4.914 2.2032 4.914 5.5618-1.95 5.5646-4.914 5.5646z"/><path d="m136.04 7.35895h-4.443v18.21275h4.443z"/><path d="m136.04.278285h-4.443v4.443165h4.443z"/><path d="m190.267 7.04098c0-1.77159 1.553-2.92709 4.045-2.92709 2.675 0 4.409 1.482 4.625 3.6908h4.543c-.216-4.73275-3.83-7.80462896-9.179-7.80462896-5.13 0-8.707 2.89018896-8.707 7.04659896 0 9.68414 13.585 5.92514 13.585 11.35634 0 2.24-1.877 3.3246-4.588 3.3246-3.035 0-4.915-1.8057-5.168-4.6249h-4.587c.252 5.3119 4.008 8.7813 9.755 8.7813 5.564 0 9.431-2.8561 9.431-7.552.011-9.88283-13.755-5.6952-13.755-11.29102z"/><path d="m215.168 7.07789c-5.564 0-9.539 3.97471-9.539 9.39451s3.975 9.3945 9.539 9.3945c5.565 0 9.506-3.9747 9.506-9.3945s-3.978-9.39451-9.506-9.39451zm0 14.95911c-3.035 0-5.056-2.2712-5.056-5.5646 0-3.2933 2.021-5.5646 5.056-5.5646s5.023 2.2713 5.023 5.5646c0 3.2934-2.022 5.5646-5.023 5.5646z"/><path d="m235.743 22.037c-3.123 0-4.806-2.3848-4.806-5.5646s1.66-5.5646 4.732-5.5646c2.096 0 3.867 1.3003 4.191 3.106h4.409c-.398-4.19052-4.12-6.93591-8.708-6.93591-5.678 0-9.249 4.19051-9.249 9.39451 0 5.2041 3.577 9.3945 9.249 9.3945 4.696 0 8.234-2.8561 8.802-6.8308h-4.481c-.414 1.8057-2.038 3.0009-4.139 3.0009z"/><path d="m261.309 22.179c-2.819 0-4.699-1.8767-5.022-4.8038h13.44c.037-.3605.074-.9028.074-1.5189 0-4.3352-2.749-8.77841-8.855-8.77841-5.962 0-8.924 4.51411-8.924 9.32071s3.325 9.4683 9.287 9.4683c4.48 0 7.876-2.4955 8.563-6.3595h-4.336c-.471 1.7347-1.95 2.6716-4.227 2.6716zm-.363-11.7794c2.64 0 4.227 1.7347 4.409 4.0485h-8.96c.468-2.7453 2.061-4.0485 4.551-4.0485z"/><path d="m250.424 7.36464h-4.443v18.21276h4.443z"/><path d="m250.424.283969h-4.443v4.443171h4.443z"/><path d="m295.75 7.3618-4.472 12.4664-4.542-12.4664h-8.137v-4.87754h-4.443v4.87754h-3.577v3.722h3.577v8.1283c0 4.0485 2.603 6.3596 6.578 6.3596h2.924v-4.0088h-2.419c-1.663 0-2.64-.9397-2.64-2.7823v-7.6968h5.261l5.329 14.5929-2.501 6.9756h4.227l9.085-25.2905z"/></g></svg>