<svg width="20" height="17" viewBox="0 0 20 17" fill="none" xmlns="http://www.w3.org/2000/svg">
<path d="M19.895 2.12524C19.163 2.4502 18.3763 2.66904 17.5507 2.76769C18.3937 2.26285 19.0412 1.46291 19.3454 0.509606C18.557 0.977138 17.6833 1.31701 16.7532 1.50021C16.0097 0.706898 14.9478 0.211182 13.774 0.211182C11.1387 0.211182 9.20226 2.66987 9.79745 5.22223C6.40618 5.05229 3.39873 3.42754 1.38519 0.958072C0.315833 2.79256 0.830615 5.19239 2.64769 6.40764C1.97955 6.38609 1.34954 6.20289 0.799944 5.897C0.75518 7.78785 2.11053 9.55685 4.0735 9.9506C3.49903 10.1064 2.86985 10.1429 2.2299 10.0202C2.74882 11.6417 4.25587 12.8213 6.0431 12.8544C4.32716 14.1998 2.16524 14.8008 0 14.5455C1.8063 15.7036 3.95247 16.3792 6.25697 16.3792C13.8353 16.3792 18.1169 9.97879 17.8582 4.23826C18.6557 3.66213 19.3479 2.94343 19.895 2.12524Z" fill="#003D31"/>
</svg>
